<svg width="108" height="109" viewBox="0 0 108 109" fill="none" xmlns="http://www.w3.org/2000/svg">
<path d="M95.7626 78.5261C71.5126 120.626 8.53257 105.486 5.54257 56.6161C5.52928 56.444 5.48872 56.2783 5.42257 56.1261C4.8159 54.8061 3.87923 54.1961 2.61257 54.2961C2.15727 54.3321 1.73404 54.5436 1.43322 54.8855C1.13241 55.2274 0.977855 55.6726 1.00257 56.1261C1.74923 70.9861 7.17923 83.2427 17.2926 92.8961C37.3926 112.106 69.1226 112.486 89.5626 93.5561C111.823 72.9361 112.203 37.3861 90.7826 16.1761C81.9492 7.42273 70.8659 2.37273 57.5326 1.02606C53.5726 0.626062 53.5126 4.95606 56.9926 5.39606C73.8992 7.49606 86.4726 15.2527 94.7126 28.6661C104.003 43.7861 104.653 63.0961 95.7626 78.5261Z" stroke="#989898" stroke-width="2"/>
<path d="M89.4326 71.4861C79.3526 93.0261 52.0726 101.266 31.8326 87.1561C29.4259 85.4827 27.2493 83.9161 25.3026 82.4561C24.9092 82.1629 24.4205 82.027 23.9323 82.0751C23.444 82.1232 22.9912 82.3517 22.6626 82.716C21.7493 83.7027 21.6759 84.5827 22.4426 85.3561C31.1693 94.2161 41.3859 98.7194 53.0926 98.8661C76.5326 99.1661 96.5926 81.2061 98.0826 57.7361C99.6126 33.8061 82.3126 12.0061 58.0026 9.99606C57.0693 9.91606 56.3526 9.94606 55.8526 10.0861C55.5733 10.1614 55.3143 10.2983 55.0948 10.4867C54.8752 10.675 54.7005 10.9101 54.5836 11.1748C54.4666 11.4394 54.4103 11.7268 54.4188 12.016C54.4273 12.3051 54.5003 12.5888 54.6326 12.8461C55.1926 13.9261 56.1926 14.4161 57.4526 14.6061C72.5659 16.7861 83.1226 24.1561 89.1226 36.7161C94.3326 47.6061 94.5126 60.6261 89.4326 71.4861Z" stroke="#989898" stroke-width="2"/>
<path d="M87.8526 45.7861C84.2826 31.2461 71.8426 20.3461 56.7426 18.7961C56.2696 18.7485 55.7952 18.8701 55.4034 19.1392C55.0116 19.4083 54.7279 19.8076 54.6026 20.2661C54.1226 22.0261 54.7659 23.0494 56.5326 23.3361C70.2592 25.5961 79.0792 32.8727 82.9926 45.166C89.3426 65.166 74.8926 84.1561 54.5426 85.5161C54.2489 85.5375 53.9624 85.6172 53.7002 85.7504C53.438 85.8835 53.2053 86.0675 53.016 86.2913C52.8267 86.5151 52.6846 86.7743 52.5981 87.0533C52.5116 87.3324 52.4825 87.6258 52.5126 87.9161C52.8926 91.7061 60.8626 89.4161 62.9126 88.7361C81.5826 82.5161 92.5526 64.9161 87.8526 45.7861Z" stroke="#989898" stroke-width="2"/>
<path d="M76.2725 54.2861C76.2725 48.3293 73.9062 42.6165 69.6942 38.4044C65.4821 34.1924 59.7693 31.8261 53.8125 31.8261C47.8558 31.8261 42.143 34.1924 37.9309 38.4044C33.7189 42.6165 31.3525 48.3293 31.3525 54.2861C31.3525 60.2428 33.7189 65.9556 37.9309 70.1677C42.143 74.3797 47.8558 76.7461 53.8125 76.7461C59.7693 76.7461 65.4821 74.3797 69.6942 70.1677C73.9062 65.9556 76.2725 60.2428 76.2725 54.2861Z" stroke="#989898" stroke-width="2"/>
<path d="M5.54257 56.6161C8.53257 105.486 71.5126 120.626 95.7626 78.5261C104.653 63.0961 104.003 43.7861 94.7126 28.6661C86.4726 15.2527 73.8992 7.49606 56.9926 5.39606C53.5126 4.95606 53.5726 0.626062 57.5326 1.02606C70.8659 2.37273 81.9492 7.42273 90.7826 16.1761C112.203 37.3861 111.823 72.9361 89.5626 93.5561C69.1226 112.486 37.3926 112.106 17.2926 92.8961C7.17923 83.2427 1.74923 70.9861 1.00257 56.1261C0.977855 55.6726 1.13241 55.2274 1.43322 54.8855C1.73404 54.5436 2.15727 54.3321 2.61257 54.2961C3.87923 54.1961 4.81591 54.8061 5.42257 56.1261C5.48872 56.2783 5.52928 56.444 5.54257 56.6161Z" fill="white"/>
<path d="M31.8326 87.1561C52.0726 101.266 79.3526 93.0261 89.4326 71.4861C94.5126 60.6261 94.3326 47.6061 89.1226 36.7161C83.1226 24.1561 72.5659 16.7861 57.4526 14.6061C56.1926 14.4161 55.1926 13.9261 54.6326 12.8461C54.5003 12.5888 54.4273 12.3051 54.4188 12.016C54.4103 11.7268 54.4666 11.4394 54.5836 11.1748C54.7005 10.9101 54.8752 10.675 55.0948 10.4867C55.3143 10.2983 55.5733 10.1614 55.8526 10.0861C56.3526 9.94606 57.0693 9.91606 58.0026 9.99606C82.3126 12.0061 99.6126 33.8061 98.0826 57.7361C96.5926 81.2061 76.5326 99.1661 53.0926 98.8661C41.3859 98.7194 31.1693 94.2161 22.4426 85.3561C21.6759 84.5827 21.7493 83.7027 22.6626 82.716C22.9912 82.3517 23.444 82.1232 23.9323 82.0751C24.4205 82.027 24.9092 82.1629 25.3026 82.4561C27.2493 83.9161 29.4259 85.4827 31.8326 87.1561Z" fill="white"/>
<path d="M56.7426 18.7961C71.8426 20.3461 84.2826 31.2461 87.8526 45.7861C92.5526 64.9161 81.5826 82.5161 62.9126 88.7361C60.8626 89.4161 52.8926 91.7061 52.5126 87.9161C52.4825 87.6258 52.5116 87.3324 52.5981 87.0533C52.6846 86.7743 52.8267 86.5151 53.016 86.2913C53.2053 86.0675 53.438 85.8836 53.7002 85.7504C53.9624 85.6172 54.2489 85.5375 54.5426 85.5161C74.8926 84.1561 89.3426 65.166 82.9926 45.166C79.0792 32.8727 70.2592 25.5961 56.5326 23.3361C54.7659 23.0494 54.1226 22.0261 54.6026 20.2661C54.7279 19.8076 55.0116 19.4083 55.4034 19.1392C55.7952 18.8701 56.2696 18.7485 56.7426 18.7961Z" fill="white"/>
<path d="M53.8125 76.7461C66.2169 76.7461 76.2725 66.6904 76.2725 54.2861C76.2725 41.8817 66.2169 31.8261 53.8125 31.8261C41.4082 31.8261 31.3525 41.8817 31.3525 54.2861C31.3525 66.6904 41.4082 76.7461 53.8125 76.7461Z" fill="white"/>
</svg>
